<svg width="132" height="32" viewBox="0 0 132 32" fill="none" xmlns="http://www.w3.org/2000/svg">
<g clip-path="url(#clip0_6362_186556)">
<path d="M20.6782 11.577V0.00292969H9.96212C9.41582 0.00455802 8.89235 0.222298 8.50606 0.608595C8.11976 0.994891 7.90202 1.51835 7.90039 2.06466V29.9412C7.90202 30.4875 8.11976 31.011 8.50606 31.3973C8.89235 31.7836 9.41582 32.0013 9.96212 32.0029H33.0362C33.5825 32.0013 34.106 31.7836 34.4923 31.3973C34.8786 31.011 35.0963 30.4875 35.0979 29.9412V11.577H20.6782Z" fill="#6334FA"/>
<path d="M40.2402 18.3303V3.38585H45.1044C45.9615 3.37436 46.8127 3.52949 47.6106 3.84264C48.328 4.143 48.9629 4.61078 49.4625 5.20684C50.0067 5.87633 50.4099 6.64904 50.6476 7.47844C50.9383 8.50625 51.0776 9.57094 51.0612 10.6389C51.0775 11.7719 50.9383 12.9018 50.6476 13.997C50.4148 14.8677 50.012 15.6838 49.4625 16.3982C48.971 17.0238 48.3357 17.5215 47.6106 17.8488C46.817 18.1792 45.964 18.3431 45.1044 18.3303H40.2402ZM43.0304 5.8735V15.855H44.839C45.3287 15.8658 45.8143 15.7645 46.2588 15.5587C46.681 15.3611 47.0479 15.0621 47.3267 14.6883C47.6427 14.2506 47.8711 13.7559 47.9995 13.2315C48.165 12.5613 48.2439 11.8725 48.2341 11.1821V10.0957C48.2435 9.47047 48.1645 8.84702 47.9995 8.24387C47.8658 7.76487 47.6369 7.31771 47.3267 6.92906C47.0372 6.58597 46.6715 6.31538 46.2588 6.13893C45.8159 5.95883 45.3417 5.86861 44.8637 5.8735H43.0304Z" fill="#6334FA"/>
<path d="M55.6108 4.94135H53.0059V2.57715H55.6108V4.94135ZM55.6108 18.3117H53.0059V6.87344H55.6108V18.3117Z" fill="#6334FA"/>
<path d="M67.3761 4.94123C67.4129 5.62173 67.2429 6.29743 66.8885 6.8795C66.5615 7.3538 66.0789 7.69882 65.5243 7.85481C65.8286 8.19147 66.0617 8.58622 66.2095 9.01531C66.3701 9.4925 66.4494 9.99331 66.444 10.4968C66.451 11.0423 66.3569 11.5844 66.1663 12.0956C65.99 12.5611 65.714 12.9825 65.3576 13.3301C64.9768 13.6871 64.5214 13.9549 64.0243 14.1141C63.4273 14.3115 62.801 14.4054 62.1724 14.3918H61.1107C60.9021 14.3833 60.6984 14.4564 60.5428 14.5956C60.4736 14.659 60.4186 14.7363 60.3814 14.8225C60.3442 14.9086 60.3255 15.0017 60.3268 15.0956C60.3234 15.1842 60.3381 15.2725 60.3699 15.3553C60.4017 15.4381 60.4501 15.5135 60.5119 15.577C60.5735 15.6419 60.6485 15.6926 60.7316 15.7257C60.8148 15.7587 60.9041 15.7733 60.9934 15.7684H64.9626C65.3125 15.7655 65.6592 15.8348 65.9811 15.9721C66.2982 16.1156 66.5804 16.3262 66.8082 16.5894C67.0568 16.8634 67.2478 17.1846 67.37 17.5338C67.5156 17.9288 67.5868 18.3474 67.5798 18.7684C67.5852 19.2669 67.4864 19.7609 67.2897 20.219C67.1026 20.6415 66.8317 21.0216 66.4934 21.3363C66.1536 21.6486 65.7549 21.8899 65.3206 22.0462C64.8581 22.216 64.3689 22.3017 63.8761 22.2993H59.6663C59.3348 22.3028 59.0061 22.2396 58.6996 22.1134C58.3931 21.9872 58.1151 21.8006 57.8823 21.5647C57.6616 21.3209 57.4879 21.0383 57.37 20.7314C57.2386 20.3909 57.1736 20.0284 57.1786 19.6635C57.1584 19.1578 57.3036 18.6594 57.5922 18.2437C57.856 17.8664 58.2022 17.554 58.6045 17.3301C58.3243 17.159 58.0926 16.9188 57.9317 16.6326C57.762 16.3182 57.6769 15.9651 57.6848 15.6079C57.6845 15.3728 57.7306 15.1399 57.8206 14.9227C57.9072 14.7132 58.0305 14.5209 58.1848 14.3548C58.3378 14.1778 58.5193 14.0276 58.7218 13.9104C58.917 13.7892 59.1238 13.6879 59.3391 13.6079C58.9 13.2811 58.5515 12.8477 58.3268 12.3486C58.0804 11.7634 57.9645 11.1314 57.9872 10.4968C57.9808 9.94985 58.0728 9.40622 58.2589 8.89185C58.4305 8.42391 58.7071 8.00156 59.0675 7.65728C59.4468 7.30326 59.8971 7.03393 60.3885 6.86716C60.9743 6.66731 61.5906 6.57122 62.2095 6.58321C62.5527 6.5806 62.8955 6.60744 63.2342 6.66345C63.5389 6.71168 63.8371 6.79452 64.1231 6.91037C64.3297 6.76888 64.5129 6.59602 64.6663 6.39802C64.8004 6.22425 64.9143 6.0358 65.0058 5.83629C65.0862 5.67286 65.1483 5.50104 65.191 5.32395C65.2189 5.19604 65.2354 5.0659 65.2403 4.93506L67.3761 4.94123ZM60.8268 18.2005C60.6843 18.1999 60.5434 18.2293 60.4132 18.2869C60.2925 18.3448 60.182 18.4219 60.086 18.5153C59.9899 18.6101 59.9143 18.7235 59.8638 18.8486C59.8089 18.973 59.7816 19.1078 59.7835 19.2437C59.7748 19.3841 59.7956 19.5248 59.8446 19.6567C59.8936 19.7885 59.9697 19.9087 60.068 20.0093C60.1663 20.1099 60.2847 20.1888 60.4153 20.2409C60.546 20.293 60.6862 20.3171 60.8268 20.3116H63.7589C64.0665 20.3199 64.3668 20.2169 64.6045 20.0215C64.7161 19.9258 64.8045 19.8061 64.8633 19.6715C64.9221 19.5368 64.9497 19.3905 64.944 19.2437C64.9508 19.1014 64.9268 18.9593 64.8735 18.8272C64.8202 18.6951 64.739 18.576 64.6354 18.4783C64.4268 18.2925 64.1553 18.1932 63.8761 18.2005H60.8268ZM62.1971 8.54617C61.9649 8.52757 61.7315 8.56495 61.5167 8.65518C61.3019 8.7454 61.1119 8.88583 60.9626 9.06469C60.6806 9.48681 60.5461 9.99028 60.5798 10.4968C60.5509 11.0064 60.6944 11.5108 60.9872 11.9289C61.1445 12.0995 61.3354 12.2356 61.5479 12.3287C61.7603 12.4219 61.9898 12.47 62.2218 12.47C62.4538 12.47 62.6833 12.4219 62.8958 12.3287C63.1083 12.2356 63.2991 12.0995 63.4564 11.9289C63.7492 11.5108 63.8927 11.0064 63.8638 10.4968C63.8945 9.98124 63.751 9.47033 63.4564 9.04617C63.3024 8.86747 63.1074 8.72867 62.8881 8.6416C62.6689 8.55454 62.4318 8.5218 62.1971 8.54617Z" fill="#6334FA"/>
<path d="M71.4936 4.94135H68.8887V2.57715H71.4936V4.94135ZM71.4936 18.3117H68.8887V6.87344H71.4936V18.3117Z" fill="#6334FA"/>
<path d="M73.9805 3.38574H76.7706V15.7314H83.0916V18.3487H73.9805V3.38574Z" fill="#6334FA"/>
<path d="M89.0545 6.60799C89.7006 6.56092 90.3486 6.66787 90.9453 6.92006C91.5419 7.17224 92.0702 7.56246 92.4866 8.05861C93.2521 9.02774 93.6286 10.5277 93.6286 12.5956C93.6286 14.6635 93.2521 16.1697 92.4866 17.1389C92.0422 17.5994 91.5095 17.9657 90.9203 18.2159C90.3312 18.4661 89.6977 18.595 89.0576 18.595C88.4176 18.595 87.7841 18.4661 87.1949 18.2159C86.6058 17.9657 86.0731 17.5994 85.6286 17.1389C84.8632 16.1677 84.4805 14.6533 84.4805 12.5956C84.4805 10.538 84.8632 9.02569 85.6286 8.05861C86.0438 7.56256 86.571 7.17233 87.1666 6.92011C87.7623 6.66789 88.4094 6.56091 89.0545 6.60799ZM89.0545 8.8117C88.7571 8.79339 88.4612 8.86634 88.2064 9.02077C87.9516 9.17521 87.75 9.40377 87.6286 9.67589C87.3072 10.4706 87.1639 11.326 87.2089 12.1821V13.0154C87.1634 13.8735 87.3067 14.7311 87.6286 15.5277C87.7647 15.7891 87.9699 16.0082 88.2219 16.1611C88.4738 16.314 88.7629 16.3948 89.0576 16.3948C89.3523 16.3948 89.6414 16.314 89.8934 16.1611C90.1453 16.0082 90.3505 15.7891 90.4866 15.5277C90.8086 14.7311 90.9518 13.8735 90.9064 13.0154V12.1821C90.9513 11.326 90.808 10.4706 90.4866 9.67589C90.3649 9.40274 90.1623 9.17346 89.9063 9.01894C89.6502 8.86443 89.353 8.7921 89.0545 8.8117Z" fill="#6334FA"/>
<path d="M99.6415 6.60797C100.206 6.59926 100.768 6.68908 101.302 6.87341C101.785 7.0418 102.219 7.32577 102.567 7.70057C102.937 8.10832 103.211 8.59332 103.37 9.12032C103.574 9.78804 103.67 10.4841 103.654 11.182H100.975C101.014 10.5669 100.9 9.9516 100.641 9.39192C100.547 9.2104 100.403 9.05949 100.226 8.95676C100.049 8.85403 99.846 8.80372 99.6415 8.81168C99.3787 8.80529 99.1212 8.88597 98.9091 9.04116C98.697 9.19635 98.5421 9.41734 98.4686 9.6697C98.2007 10.479 98.0836 11.3305 98.123 12.182V13.0154C98.0853 13.8683 98.2089 14.7206 98.4872 15.5277C98.5737 15.7852 98.7401 16.0084 98.9621 16.1649C99.1841 16.3214 99.4502 16.4031 99.7217 16.3981C99.9319 16.4072 100.14 16.3532 100.319 16.2432C100.498 16.1333 100.641 15.9722 100.728 15.7808C100.967 15.2181 101.073 14.6074 101.037 13.9969H103.666C103.68 14.6963 103.586 15.3937 103.388 16.0648C103.232 16.5918 102.962 17.0783 102.598 17.4907C102.26 17.8606 101.836 18.1424 101.364 18.3117C100.845 18.4951 100.297 18.585 99.7464 18.5771C99.0831 18.5929 98.4236 18.4732 97.8081 18.2253C97.2641 17.9891 96.7946 17.6093 96.4501 17.1265C96.0638 16.5693 95.7949 15.9392 95.66 15.2746C95.477 14.3937 95.3922 13.4952 95.4069 12.5956C95.4069 10.538 95.7588 9.02567 96.4625 8.05859C96.8321 7.57387 97.3156 7.18786 97.8702 6.93481C98.4247 6.68176 99.0331 6.56949 99.6415 6.60797Z" fill="#6334FA"/>
<path d="M108.228 11.429L111.432 6.87344H114.228L110.821 11.5339L114.395 18.3241H111.506L109.185 13.5833L108.228 14.75V18.3241H105.623V2.57715H108.228V11.429Z" fill="#6334FA"/>
<path d="M119.45 6.60764C120.045 6.57085 120.64 6.68446 121.179 6.93798C121.719 7.1915 122.185 7.57677 122.537 8.05825C123.228 9.02739 123.568 10.5274 123.568 12.5953V13.2558H117.753C117.755 13.7127 117.792 14.1688 117.864 14.62C117.916 14.969 118.02 15.3082 118.173 15.6262C118.291 15.8774 118.477 16.0909 118.71 16.2434C118.952 16.3933 119.233 16.4685 119.518 16.4595C119.731 16.4637 119.94 16.4131 120.128 16.3126C120.315 16.212 120.473 16.0649 120.586 15.8854C120.879 15.4033 121.019 14.8437 120.987 14.2805H123.568C123.582 14.9333 123.48 15.5835 123.265 16.2002C123.086 16.7058 122.797 17.1653 122.419 17.5459C122.055 17.9012 121.617 18.1711 121.136 18.336C120.615 18.5119 120.068 18.5995 119.518 18.5953C118.885 18.6368 118.251 18.5262 117.669 18.2728C117.087 18.0193 116.574 17.6304 116.173 17.1385C115.407 16.1673 115.024 14.6529 115.024 12.5953C115.024 10.5377 115.405 9.02533 116.166 8.05825C116.558 7.57118 117.06 7.18519 117.632 6.93275C118.203 6.68032 118.827 6.56882 119.45 6.60764ZM119.45 8.74344C119.2 8.72451 118.95 8.77932 118.73 8.90109C118.511 9.02287 118.332 9.20627 118.216 9.42862C117.931 10.0332 117.781 10.6925 117.778 11.3607H120.821C120.855 10.6993 120.739 10.0388 120.481 9.42862C120.397 9.22456 120.254 9.05025 120.071 8.92813C119.887 8.80602 119.671 8.74169 119.45 8.74344Z" fill="#6334FA"/>
<path d="M130.11 6.608C130.259 6.60819 130.408 6.61851 130.555 6.63886L130.907 6.70676C131.003 6.72861 131.098 6.75539 131.191 6.78701V9.3117H130.259C129.982 9.31155 129.708 9.35317 129.444 9.43516C129.186 9.52224 128.953 9.6705 128.765 9.86726C128.552 10.0998 128.392 10.3757 128.296 10.6759C128.166 11.087 128.106 11.5167 128.117 11.9475V18.3302H125.512V6.87343H127.685L127.993 8.54627H128.117C128.196 8.30481 128.289 8.06784 128.394 7.83639C128.497 7.61174 128.632 7.40366 128.796 7.21911C128.953 7.04126 129.142 6.89286 129.351 6.78084C129.586 6.66029 129.847 6.60085 130.11 6.608Z" fill="#6334FA"/>
<path d="M48.9814 28.7867V30.6386H48.4073V28.7867L46.9629 26.1694H47.5802L48.7283 28.2373L49.8333 26.1694H50.395L48.9814 28.7867Z" fill="#868383"/>
<path d="M51.4681 27.1632C51.6451 27.1526 51.8218 27.1873 51.9817 27.264C52.1415 27.3407 52.2792 27.4568 52.3817 27.6015C52.6221 28.0094 52.7319 28.4812 52.6965 28.9533C52.7324 29.4275 52.6226 29.9013 52.3817 30.3114C52.2714 30.4513 52.1307 30.5645 51.9703 30.6423C51.8099 30.7201 51.634 30.7605 51.4558 30.7605C51.2775 30.7605 51.1016 30.7201 50.9412 30.6423C50.7808 30.5645 50.6402 30.4513 50.5298 30.3114C50.294 29.8995 50.1865 29.4266 50.2212 28.9533C50.1874 28.4821 50.2949 28.0114 50.5298 27.6015C50.6346 27.4531 50.7762 27.3346 50.9408 27.2577C51.1053 27.1808 51.2871 27.1483 51.4681 27.1632ZM51.4681 27.6385C51.3651 27.6347 51.2632 27.6606 51.1746 27.7132C51.0859 27.7657 51.0142 27.8427 50.9681 27.9348C50.843 28.2158 50.7879 28.5229 50.8076 28.8299V29.083C50.7885 29.3879 50.8435 29.6929 50.9681 29.9718C51.0167 30.0621 51.0889 30.1376 51.1769 30.1901C51.265 30.2427 51.3656 30.2705 51.4681 30.2705C51.5707 30.2705 51.6713 30.2427 51.7593 30.1901C51.8473 30.1376 51.9195 30.0621 51.9681 29.9718C52.0963 29.6939 52.1535 29.3885 52.1348 29.083V28.8299C52.153 28.5224 52.0958 28.2151 51.9681 27.9348C51.9266 27.8369 51.8568 27.7535 51.7678 27.6953C51.6788 27.637 51.5745 27.6065 51.4681 27.6077V27.6385Z" fill="#868383"/>
<path d="M55.5183 30.6388H55.1108L55.0615 30.2499H55.0183C54.9393 30.4069 54.8144 30.5361 54.6602 30.6203C54.5139 30.6905 54.3534 30.7264 54.1911 30.7252C54.0736 30.7263 53.9567 30.7075 53.8454 30.6697C53.742 30.6354 53.6487 30.576 53.5738 30.4968C53.4977 30.4018 53.4411 30.2928 53.4071 30.1759C53.3614 30.0196 53.3406 29.8571 53.3454 29.6944V27.2252H53.8824V29.6326C53.8807 29.7323 53.8911 29.8318 53.9133 29.9289C53.9308 29.9978 53.9646 30.0613 54.0121 30.1141C54.0548 30.1576 54.1079 30.1895 54.1664 30.2067C54.2318 30.2173 54.2985 30.2173 54.3639 30.2067C54.4481 30.2067 54.5309 30.1855 54.6047 30.145C54.684 30.0971 54.7532 30.0342 54.8084 29.9598C54.8702 29.8687 54.9181 29.7688 54.9504 29.6635C54.9843 29.5346 55.0009 29.4017 54.9997 29.2684V27.2129H55.5183V30.6388Z" fill="#868383"/>
<path d="M57.4132 27.1634H57.512H57.5922H57.6663V27.7128H57.4873C57.4052 27.7141 57.3239 27.7287 57.2466 27.756C57.1703 27.7872 57.101 27.8334 57.0428 27.8918C56.9796 27.9639 56.9313 28.0478 56.9009 28.1387C56.866 28.2632 56.8494 28.3921 56.8515 28.5214V30.614H56.3145V27.2128H56.7527L56.8268 27.6572H56.8638C56.8852 27.5913 56.912 27.5273 56.9441 27.4659C56.9737 27.4042 57.0133 27.3479 57.0614 27.2992C57.1064 27.2481 57.1609 27.2062 57.2219 27.1758C57.2842 27.1592 57.3492 27.155 57.4132 27.1634Z" fill="#868383"/>
<path d="M61.7708 30.6386H61.3634L61.2955 30.2497H61.2584C61.1894 30.3964 61.0803 30.5205 60.9436 30.6077C60.8138 30.6873 60.6638 30.728 60.5115 30.725C60.3572 30.7255 60.2049 30.6895 60.0671 30.6201C59.929 30.5451 59.8139 30.4342 59.7338 30.2991C59.633 30.127 59.5621 29.9392 59.5239 29.7435C59.4707 29.4753 59.4459 29.2022 59.4498 28.9287C59.4448 28.659 59.4717 28.3896 59.5301 28.1262C59.5748 27.9306 59.6498 27.7432 59.7523 27.5707C59.8314 27.439 59.9416 27.3288 60.0733 27.2497C60.1921 27.1906 60.3233 27.161 60.456 27.1633C60.6105 27.1614 60.7631 27.1974 60.9004 27.2682C61.0229 27.336 61.1219 27.4393 61.1844 27.5645H61.2152V25.9287H61.7523L61.7708 30.6386ZM60.6226 27.6077C60.5283 27.6046 60.4348 27.6259 60.351 27.6695C60.2718 27.7236 60.2063 27.7954 60.1597 27.8793C60.1038 27.9985 60.0664 28.1255 60.0486 28.2559C60.0218 28.4357 60.0094 28.6173 60.0115 28.7991V29.0522C60.0096 29.2339 60.022 29.4156 60.0486 29.5954C60.0665 29.7218 60.104 29.8447 60.1597 29.9596C60.2032 30.0456 60.2694 30.1182 60.351 30.1695C60.4331 30.2178 60.5275 30.2414 60.6226 30.2374C60.7182 30.2362 60.8115 30.2077 60.8913 30.1552C60.9712 30.1027 61.0343 30.0283 61.0733 29.9411C61.187 29.6591 61.2376 29.3557 61.2214 29.0522V28.8299C61.2296 28.0151 61.03 27.6077 60.6226 27.6077Z" fill="#868383"/>
<path d="M63.6478 27.1635C63.8239 27.1528 63.9998 27.1875 64.1587 27.2642C64.3175 27.341 64.4541 27.4572 64.5552 27.6018C64.7955 28.0097 64.9054 28.4815 64.87 28.9536C64.9059 29.4278 64.796 29.9016 64.5552 30.3117C64.4455 30.4527 64.3051 30.5668 64.1446 30.6453C63.9842 30.7238 63.8079 30.7646 63.6292 30.7646C63.4506 30.7646 63.2743 30.7238 63.1138 30.6453C62.9534 30.5668 62.813 30.4527 62.7033 30.3117C62.4624 29.9016 62.3526 29.4278 62.3885 28.9536C62.3531 28.4815 62.4629 28.0097 62.7033 27.6018C62.8081 27.452 62.9507 27.3325 63.1165 27.2555C63.2824 27.1786 63.4657 27.1468 63.6478 27.1635ZM63.6478 27.6388C63.5439 27.6346 63.441 27.6603 63.3512 27.7128C63.2615 27.7653 63.1888 27.8425 63.1416 27.9351C63.0194 28.217 62.9645 28.5234 62.9811 28.8302V29.0833C62.965 29.388 63.0199 29.6923 63.1416 29.9722C63.1888 30.0648 63.2615 30.142 63.3512 30.1945C63.441 30.247 63.5439 30.2727 63.6478 30.2684C63.75 30.2726 63.8512 30.2468 63.939 30.1941C64.0267 30.1415 64.0971 30.0643 64.1416 29.9722C64.2697 29.6942 64.327 29.3888 64.3082 29.0833V28.8302C64.3375 28.514 64.2865 28.1955 64.1601 27.9043C64.1144 27.809 64.0411 27.7298 63.9497 27.677C63.8583 27.6241 63.7531 27.6001 63.6478 27.608V27.6388Z" fill="#868383"/>
<path d="M66.5368 27.1636C66.6994 27.1608 66.8609 27.1902 67.0121 27.25C67.142 27.3063 67.2548 27.3957 67.3393 27.5093C67.4313 27.6361 67.4945 27.7814 67.5245 27.9352C67.569 28.1232 67.5898 28.3161 67.5862 28.5093H67.0306C67.0413 28.3819 67.0413 28.2539 67.0306 28.1266C67.0253 28.0311 66.9978 27.9381 66.9504 27.855C66.918 27.7863 66.8666 27.7285 66.8022 27.6883C66.7265 27.6547 66.6444 27.6378 66.5615 27.6389C66.4635 27.636 66.3669 27.6628 66.2843 27.7156C66.2017 27.7685 66.137 27.845 66.0985 27.9352C65.9843 28.2192 65.9337 28.5247 65.9504 28.8303V29.0834C65.9359 29.3863 65.9842 29.6889 66.0924 29.9723C66.1312 30.0635 66.1969 30.1407 66.2807 30.1936C66.3645 30.2466 66.4625 30.2727 66.5615 30.2686C66.6452 30.2713 66.7282 30.2521 66.8022 30.213C66.8722 30.174 66.9299 30.1163 66.9689 30.0463C67.0114 29.9585 67.0405 29.8649 67.0553 29.7686C67.0658 29.6453 67.0658 29.5214 67.0553 29.3982H67.5862C67.5871 29.5705 67.5684 29.7424 67.5306 29.9105C67.4964 30.0629 67.4336 30.2075 67.3455 30.3365C67.2628 30.461 67.1504 30.5628 67.0183 30.6328C66.8703 30.7113 66.7043 30.7496 66.5368 30.7439C66.3563 30.7477 66.1772 30.7118 66.0121 30.6389C65.8636 30.5645 65.7378 30.4515 65.6479 30.3118C65.5436 30.1392 65.4724 29.9487 65.438 29.75C65.3847 29.4881 65.3598 29.2211 65.364 28.9537C65.333 28.4856 65.4313 28.018 65.6479 27.6019C65.7439 27.4565 65.8768 27.3393 66.033 27.2623C66.1892 27.1853 66.3631 27.1512 66.5368 27.1636Z" fill="#868383"/>
<path d="M70.3819 30.6388H69.9745L69.9066 30.2376H69.8634C69.7861 30.3958 69.6608 30.5254 69.5054 30.608C69.359 30.6781 69.1985 30.714 69.0362 30.7129C68.9187 30.714 68.8018 30.6952 68.6905 30.6573C68.5885 30.6238 68.497 30.5642 68.4251 30.4845C68.3471 30.3898 68.2883 30.2808 68.2523 30.1635C68.2095 30.0066 68.1888 29.8446 68.1905 29.682V27.2129H68.7276V29.6326C68.7244 29.7327 68.7369 29.8327 68.7646 29.9289C68.7796 29.9987 68.8138 30.0628 68.8634 30.1141C68.9038 30.1574 68.9549 30.1893 69.0115 30.2067C69.0769 30.2173 69.1436 30.2173 69.2091 30.2067C69.2933 30.2076 69.3763 30.1863 69.4498 30.145C69.5316 30.1005 69.6014 30.037 69.6535 29.9598C69.7178 29.8701 69.7658 29.7698 69.7955 29.6635C69.8294 29.5346 69.846 29.4017 69.8449 29.2684V27.2129H70.3819V30.6388Z" fill="#868383"/>
<path d="M74.0361 27.1634C74.1476 27.1622 74.2585 27.181 74.3633 27.219C74.4628 27.2537 74.5505 27.3158 74.6164 27.398C74.6972 27.4899 74.7544 27.6 74.7831 27.719C74.8288 27.8752 74.8496 28.0377 74.8448 28.2005V30.6696H74.3078V28.2066C74.3189 28.1082 74.3189 28.0088 74.3078 27.9103C74.287 27.844 74.2557 27.7815 74.2152 27.7251C74.175 27.6845 74.1266 27.653 74.0732 27.6326C74.016 27.6231 73.9576 27.6231 73.9003 27.6326C73.8198 27.6301 73.7403 27.6516 73.672 27.6943C73.5955 27.7414 73.5301 27.8046 73.4806 27.8795C73.4252 27.9717 73.3836 28.0715 73.3571 28.1758C73.3236 28.3048 73.307 28.4376 73.3078 28.5708V30.6634H72.7769V28.2066C72.7792 28.1066 72.7667 28.0067 72.7399 27.9103C72.7242 27.8421 72.6925 27.7786 72.6473 27.7251C72.6104 27.6834 72.5637 27.6516 72.5115 27.6326C72.4522 27.6231 72.3917 27.6231 72.3324 27.6326C72.2521 27.6318 72.1731 27.6532 72.104 27.6943C72.0306 27.743 71.9676 27.806 71.9189 27.8795C71.8587 27.9699 71.8148 28.0702 71.7892 28.1758C71.7557 28.3048 71.7391 28.4376 71.7398 28.5708V30.6634H71.209V27.2128H71.567L71.6411 27.6079H71.6781C71.752 27.457 71.8677 27.3306 72.0115 27.2437C72.1497 27.1687 72.3048 27.1305 72.4621 27.1326C72.6183 27.1289 72.7724 27.1695 72.9065 27.2498C73.0435 27.337 73.1443 27.4707 73.1905 27.6264C73.2771 27.473 73.4028 27.3452 73.5547 27.256C73.7046 27.1844 73.8704 27.1525 74.0361 27.1634Z" fill="#868383"/>
<path d="M76.7833 27.1634C76.9525 27.1601 77.1206 27.1916 77.2771 27.256C77.4197 27.314 77.5421 27.4128 77.629 27.5399C77.7326 27.6904 77.804 27.8606 77.8388 28.0399C77.8924 28.281 77.9172 28.5276 77.9129 28.7745V29.114H76.0611C76.0393 29.4178 76.1035 29.7215 76.2462 29.9906C76.3066 30.0828 76.3905 30.1572 76.4892 30.206C76.588 30.2549 76.6981 30.2764 76.808 30.2683C76.8888 30.2687 76.9688 30.2519 77.0425 30.219C77.1159 30.1834 77.1795 30.1304 77.2277 30.0646C77.281 29.9912 77.3226 29.91 77.3512 29.8239C77.3767 29.7188 77.3892 29.611 77.3882 29.5029H77.9191C77.9225 29.6791 77.8953 29.8545 77.8388 30.0214C77.7904 30.1654 77.7126 30.2979 77.6104 30.4103C77.5129 30.5204 77.39 30.6052 77.2524 30.6572C77.107 30.7147 76.952 30.744 76.7956 30.7436C76.6037 30.7477 76.4129 30.7142 76.2339 30.6449C76.0724 30.5782 75.9332 30.4668 75.8327 30.3239C75.7119 30.1583 75.6277 29.9689 75.5858 29.7683C75.5242 29.5012 75.4951 29.2276 75.4993 28.9535C75.4644 28.4798 75.5788 28.007 75.8265 27.6017C75.9373 27.4552 76.0827 27.3386 76.2497 27.2621C76.4167 27.1856 76.6 27.1517 76.7833 27.1634ZM76.7833 27.6387C76.677 27.6353 76.5714 27.6564 76.4746 27.7004C76.3882 27.7434 76.3155 27.8097 76.2648 27.8918C76.1989 27.9843 76.1527 28.0894 76.129 28.2004C76.0944 28.3423 76.0717 28.4869 76.0611 28.6325H77.3512C77.3683 28.3775 77.3194 28.1224 77.2092 27.8918C77.174 27.8078 77.1148 27.7361 77.0391 27.6856C76.9633 27.6351 76.8743 27.608 76.7833 27.6078V27.6387Z" fill="#868383"/>
<path d="M79.9254 27.1636C80.045 27.1619 80.164 27.1807 80.2773 27.2191C80.38 27.2544 80.4715 27.3162 80.5427 27.3981C80.6235 27.49 80.6807 27.6002 80.7094 27.7191C80.7551 27.8754 80.776 28.0379 80.7711 28.2006V30.6697H80.2403V28.2068C80.2425 28.1067 80.2301 28.0069 80.2032 27.9105C80.183 27.8428 80.1494 27.7798 80.1045 27.7253C80.0617 27.6818 80.0086 27.6499 79.9501 27.6327C79.8847 27.6221 79.818 27.6221 79.7526 27.6327C79.6684 27.6327 79.5856 27.6539 79.5119 27.6944C79.4325 27.7423 79.3633 27.8052 79.3082 27.8796C79.246 27.9697 79.2 28.07 79.1724 28.1759C79.1337 28.304 79.1149 28.4372 79.1168 28.571V30.6636H78.5859V27.213H78.9748L79.0489 27.608H79.0859C79.1668 27.454 79.2913 27.3273 79.444 27.2438C79.5953 27.1775 79.7608 27.1499 79.9254 27.1636Z" fill="#868383"/>
<path d="M82.0609 27.2126H82.5177V27.6879H82.0609V29.9225C82.0548 30.0073 82.0813 30.0912 82.1349 30.1571C82.1652 30.1858 82.2012 30.2077 82.2406 30.2216C82.2799 30.2354 82.3218 30.2408 82.3633 30.2373H82.5177V30.6138C82.4626 30.6411 82.4046 30.6618 82.3448 30.6756C82.2751 30.6843 82.2046 30.6843 82.1349 30.6756C82.0339 30.6789 81.9339 30.6554 81.8448 30.6077C81.7671 30.5649 81.7013 30.5034 81.6535 30.4287C81.6069 30.3503 81.5736 30.2648 81.5547 30.1756C81.535 30.0801 81.5246 29.9829 81.5238 29.8855V27.6632H81.2275V27.1879H81.5238L81.6411 26.2373H82.0609V27.2126Z" fill="#868383"/>
<path d="M84.0122 27.1636C84.1556 27.1609 84.2981 27.186 84.4319 27.2377C84.5479 27.2834 84.653 27.3528 84.7406 27.4414C84.8245 27.5256 84.8897 27.6266 84.9319 27.7377C84.9744 27.8544 84.9953 27.9778 84.9937 28.1019C84.9967 28.1265 84.9967 28.1514 84.9937 28.176V28.2254H84.4381V28.1698C84.4442 28.1041 84.4442 28.038 84.4381 27.9723C84.4215 27.9105 84.3944 27.852 84.3579 27.7994C84.3187 27.7474 84.268 27.7051 84.2097 27.676C84.1402 27.6439 84.064 27.6291 83.9875 27.6328C83.907 27.6285 83.8266 27.6433 83.7529 27.676C83.6994 27.7069 83.6514 27.7466 83.6109 27.7933C83.5753 27.8387 83.55 27.8914 83.5369 27.9476C83.5312 27.9989 83.5312 28.0506 83.5369 28.1019C83.5346 28.1833 83.5584 28.2633 83.6048 28.3303C83.6525 28.3941 83.7136 28.4468 83.7838 28.4846C83.862 28.5302 83.9447 28.5674 84.0307 28.5957L84.3208 28.7007C84.4197 28.7366 84.5165 28.7778 84.6109 28.8241C84.703 28.8716 84.7865 28.9342 84.8579 29.0093C84.9363 29.0884 84.9973 29.183 85.0369 29.2871C85.0845 29.4175 85.1075 29.5557 85.1048 29.6945C85.1075 29.8571 85.0782 30.0186 85.0183 30.1698C84.9678 30.2947 84.8897 30.4065 84.79 30.497C84.6907 30.5848 84.5723 30.6482 84.4443 30.6822C84.3043 30.7251 84.1585 30.7459 84.0122 30.7439C83.8393 30.7509 83.6668 30.7214 83.506 30.6575C83.3757 30.61 83.2576 30.5341 83.1603 30.4352C83.0758 30.3421 83.0107 30.2329 82.969 30.1143C82.9275 29.9952 82.9067 29.87 82.9072 29.7439V29.6328C82.9092 29.6184 82.9092 29.6039 82.9072 29.5896H83.469V29.6328C83.4652 29.7273 83.4799 29.8217 83.5122 29.9106C83.5372 29.982 83.5772 30.0472 83.6295 30.1019C83.6803 30.1516 83.7414 30.1895 83.8085 30.213C83.8808 30.2332 83.9556 30.2436 84.0307 30.2439C84.0979 30.2462 84.1649 30.2357 84.2282 30.213C84.2893 30.1945 84.3446 30.1605 84.3887 30.1143C84.4392 30.0715 84.4775 30.0161 84.4998 29.9538C84.5307 29.8861 84.5455 29.8121 84.543 29.7377C84.5494 29.6443 84.5256 29.5512 84.4751 29.4723C84.4325 29.3998 84.3733 29.3384 84.3023 29.2933C84.2224 29.2436 84.1376 29.2022 84.0492 29.1698L83.7653 29.0649L83.4751 28.9414C83.3846 28.894 83.3014 28.8337 83.2282 28.7624C83.1513 28.6869 83.0905 28.5966 83.0492 28.497C83.0021 28.375 82.979 28.245 82.9813 28.1143C82.9792 27.9729 83.0043 27.8325 83.0554 27.7007C83.1049 27.5837 83.1785 27.4786 83.2714 27.392C83.3689 27.3069 83.4821 27.2419 83.6048 27.2007C83.7381 27.1688 83.8753 27.1563 84.0122 27.1636Z" fill="#868383"/>
<path d="M88.2337 27.1636C88.5162 27.1427 88.7955 27.2336 89.0115 27.4167C89.1016 27.5105 89.1711 27.6221 89.2158 27.7443C89.2604 27.8666 89.2791 27.9967 89.2708 28.1265V30.0463C89.2681 30.0773 89.2716 30.1086 89.2812 30.1383C89.2907 30.168 89.3061 30.1955 89.3263 30.2191C89.368 30.2471 89.4188 30.2581 89.4683 30.25H89.672V30.6265L89.5362 30.6759C89.4646 30.6868 89.3918 30.6868 89.3202 30.6759C89.1924 30.6815 89.0671 30.6398 88.9683 30.5586C88.875 30.4773 88.8084 30.3697 88.777 30.25H88.7461C88.6615 30.389 88.5424 30.5039 88.4004 30.5833C88.2505 30.6632 88.0826 30.7036 87.9128 30.7006H87.7276L87.53 30.6512C87.4619 30.6249 87.3976 30.5896 87.3387 30.5463C87.271 30.4991 87.2142 30.4381 87.172 30.3673C87.1184 30.2882 87.0788 30.2005 87.0547 30.108C87.0259 29.9909 87.0114 29.8706 87.0115 29.75C87.0042 29.5487 87.0488 29.3488 87.1411 29.1697C87.2271 29.0221 87.3535 28.9022 87.5054 28.8241C87.6765 28.7337 87.8627 28.6751 88.0547 28.6512C88.2837 28.6183 88.5148 28.6018 88.7461 28.6018V28.1636C88.7562 28.0878 88.7562 28.011 88.7461 27.9352C88.7361 27.8712 88.7083 27.8113 88.6658 27.7623C88.6219 27.7089 88.5643 27.6684 88.4992 27.6451C88.4113 27.6176 88.3195 27.6051 88.2276 27.608C88.1411 27.6045 88.0549 27.6192 87.9745 27.6512C87.9133 27.6839 87.8588 27.7279 87.814 27.7809C87.7751 27.832 87.7477 27.891 87.7337 27.9537C87.7248 28.0192 87.7248 28.0857 87.7337 28.1512V28.2253H87.209C87.2057 28.2049 87.2057 28.184 87.209 28.1636V28.0833C87.2057 27.9413 87.2331 27.8002 87.2893 27.6697C87.342 27.555 87.4201 27.4536 87.5177 27.3735C87.6188 27.2898 87.7367 27.2288 87.8634 27.1944C87.985 27.1684 88.1095 27.1581 88.2337 27.1636ZM88.7337 29.1142C88.5755 29.1042 88.4167 29.1042 88.2584 29.1142C88.1305 29.123 88.0051 29.1543 87.8881 29.2068C87.793 29.2492 87.7101 29.3151 87.6473 29.3981C87.5886 29.497 87.5587 29.6103 87.5609 29.7253C87.5507 29.8707 87.5922 30.015 87.6782 30.1327C87.7751 30.2123 87.8987 30.252 88.0239 30.2438C88.1105 30.243 88.1963 30.2262 88.277 30.1944C88.3643 30.1591 88.4425 30.1042 88.5053 30.0339C88.5775 29.9594 88.6342 29.8713 88.672 29.7747C88.716 29.6541 88.7369 29.5264 88.7337 29.3981V29.1142Z" fill="#868383"/>
<path d="M91.5117 27.1632C91.6293 27.161 91.7464 27.1798 91.8574 27.2188C91.9612 27.2517 92.0533 27.3139 92.1228 27.3978C92.2034 27.4907 92.2624 27.6003 92.2956 27.7188C92.3414 27.875 92.3622 28.0375 92.3574 28.2002V30.6694H91.8203V28.2064C91.8212 28.1068 91.8109 28.0074 91.7895 27.9101C91.7667 27.8435 91.7334 27.7809 91.6907 27.7249C91.6471 27.6826 91.5943 27.6509 91.5364 27.6323C91.4709 27.6225 91.4043 27.6225 91.3389 27.6323C91.2545 27.6309 91.1713 27.6522 91.0981 27.6941C91.0163 27.7386 90.9465 27.8021 90.8944 27.8793C90.8326 27.9704 90.7847 28.0703 90.7524 28.1756C90.7189 28.3045 90.7023 28.4373 90.703 28.5706V30.6632H90.166V27.2126H90.5734L90.6475 27.6077H90.703C90.7801 27.4529 90.9029 27.3257 91.0549 27.2435C91.199 27.1819 91.3553 27.1545 91.5117 27.1632Z" fill="#868383"/>
<path d="M94.4869 30.4597C94.4386 30.6395 94.3809 30.8167 94.3141 30.9905C94.2549 31.1441 94.176 31.2893 94.0795 31.4226C94.0012 31.5404 93.898 31.6394 93.7771 31.7128C93.657 31.788 93.5175 31.8267 93.3758 31.8239H93.1721C93.1106 31.8185 93.0503 31.8039 92.9931 31.7807V31.4103H93.1721C93.2437 31.4102 93.3147 31.3977 93.382 31.3732C93.4543 31.3472 93.5198 31.3049 93.5734 31.2498C93.6373 31.1806 93.6895 31.1014 93.7277 31.0152C93.7809 30.8982 93.8222 30.7762 93.8511 30.651L92.8018 27.2251H93.382L94.1413 29.8794L94.7586 27.2251H95.3018L94.4869 30.4597Z" fill="#868383"/>
<path d="M96.3392 27.2126H96.8022V27.6879H96.3392V29.9225C96.3331 30.0073 96.3596 30.0912 96.4133 30.1571C96.4438 30.1854 96.4798 30.2072 96.5191 30.221C96.5584 30.2348 96.6001 30.2404 96.6417 30.2373H96.8022V30.6138C96.7449 30.641 96.6849 30.6617 96.6231 30.6756C96.5535 30.6843 96.483 30.6843 96.4133 30.6756C96.3125 30.677 96.2129 30.6537 96.1231 30.6077C96.0454 30.5649 95.9796 30.5034 95.9318 30.4287C95.8878 30.349 95.8546 30.2639 95.833 30.1756C95.8133 30.0801 95.8029 29.9829 95.8022 29.8855V27.6632H95.5059V27.1879H95.8022L95.9194 26.2373H96.3392V27.2126Z" fill="#868383"/>
<path d="M97.7652 26.546H97.2344V25.9287H97.7652V26.546ZM97.7652 30.6201H97.2344V27.2127H97.7652V30.6201Z" fill="#868383"/>
<path d="M101.339 27.1632C101.452 27.1615 101.565 27.1803 101.672 27.2187C101.77 27.2559 101.858 27.3175 101.925 27.3978C102.002 27.4927 102.058 27.6018 102.092 27.7187C102.132 27.8759 102.151 28.0379 102.148 28.2002V30.6694H101.617V28.2064C101.619 28.1063 101.606 28.0065 101.58 27.9101C101.564 27.8419 101.532 27.7784 101.487 27.7249C101.449 27.6816 101.4 27.6496 101.345 27.6323C101.288 27.6224 101.229 27.6224 101.172 27.6323C101.092 27.6316 101.013 27.6529 100.944 27.694C100.87 27.7428 100.807 27.8058 100.759 27.8792C100.698 27.9697 100.655 28.07 100.629 28.1755C100.598 28.3048 100.583 28.4376 100.586 28.5706V30.6632H100.049V28.2064C100.06 28.1079 100.06 28.0085 100.049 27.9101C100.028 27.8438 99.9968 27.7813 99.9562 27.7249C99.9171 27.6829 99.8684 27.6511 99.8142 27.6323C99.757 27.6229 99.6986 27.6229 99.6413 27.6323C99.5609 27.6309 99.4817 27.6523 99.413 27.694C99.3365 27.7411 99.2712 27.8043 99.2216 27.8792C99.1665 27.9724 99.123 28.0719 99.092 28.1755C99.0607 28.3048 99.0461 28.4376 99.0488 28.5706V30.6632H98.5117V27.2126H98.9191L98.9932 27.6076H99.0302C99.1023 27.4556 99.2185 27.3287 99.3636 27.2434C99.4996 27.1685 99.6527 27.1302 99.808 27.1323C99.9645 27.1269 100.119 27.1677 100.252 27.2496C100.389 27.3367 100.49 27.4705 100.536 27.6261C100.625 27.4741 100.75 27.3468 100.901 27.2558C101.038 27.1918 101.188 27.1601 101.339 27.1632Z" fill="#868383"/>
<path d="M104.104 27.1636C104.273 27.1603 104.442 27.1918 104.598 27.2562C104.741 27.3142 104.863 27.413 104.95 27.5401C105.051 27.692 105.122 27.8617 105.16 28.0401C105.213 28.2812 105.238 28.5278 105.234 28.7747V29.1142H103.382C103.36 29.418 103.425 29.7217 103.567 29.9907C103.628 30.083 103.711 30.1574 103.81 30.2062C103.909 30.2551 104.019 30.2766 104.129 30.2685C104.21 30.2712 104.291 30.2541 104.364 30.2186C104.437 30.1831 104.501 30.1303 104.549 30.0648C104.6 29.991 104.639 29.9098 104.666 29.8241C104.697 29.7199 104.711 29.6117 104.709 29.5031H105.24C105.242 29.6796 105.212 29.8551 105.154 30.0216C105.108 30.1668 105.03 30.2997 104.925 30.4105C104.829 30.5191 104.708 30.6036 104.573 30.6574C104.428 30.7149 104.273 30.7442 104.117 30.7438C103.925 30.7491 103.734 30.7155 103.555 30.6451C103.393 30.5768 103.252 30.4659 103.147 30.3241C103.029 30.1571 102.945 29.9682 102.901 29.7685C102.841 29.5011 102.814 29.2275 102.82 28.9537C102.784 28.4806 102.896 28.0079 103.141 27.6018C103.253 27.4549 103.4 27.338 103.568 27.2615C103.736 27.185 103.92 27.1514 104.104 27.1636ZM104.104 27.6389C103.998 27.6348 103.892 27.6559 103.796 27.7006C103.708 27.7435 103.633 27.8097 103.58 27.892C103.518 27.9864 103.475 28.0909 103.45 28.2006C103.412 28.3419 103.39 28.4867 103.382 28.6327H104.672C104.688 28.3771 104.637 28.1219 104.524 27.892C104.491 27.8075 104.434 27.7351 104.359 27.6843C104.284 27.6336 104.195 27.6069 104.104 27.608V27.6389Z" fill="#868383"/>
<path d="M106.58 30.5769L106.271 31.4472H105.926L106.191 30.6386H105.926V29.9287H106.58V30.5769Z" fill="#868383"/>
<path d="M109.938 27.1634C110.076 27.1525 110.216 27.1693 110.349 27.2127C110.481 27.2562 110.604 27.3254 110.709 27.4164C110.799 27.5103 110.869 27.6219 110.913 27.7441C110.958 27.8663 110.977 27.9965 110.968 28.1263V30.0461C110.966 30.0771 110.969 30.1084 110.979 30.1381C110.988 30.1678 111.004 30.1952 111.024 30.2189C111.06 30.2496 111.106 30.267 111.154 30.2683H111.357V30.6448L111.228 30.6942C111.154 30.7047 111.079 30.7047 111.005 30.6942C110.88 30.6989 110.757 30.6571 110.66 30.5769C110.555 30.4957 110.483 30.3796 110.456 30.2498C110.368 30.3879 110.247 30.5023 110.104 30.5831C109.957 30.6638 109.791 30.7043 109.623 30.7004H109.438L109.234 30.651C109.166 30.6233 109.102 30.5881 109.042 30.5461C108.978 30.4956 108.922 30.4351 108.876 30.3671C108.822 30.2889 108.784 30.2007 108.765 30.1078C108.733 29.9912 108.718 29.8706 108.721 29.7498C108.714 29.5484 108.759 29.3486 108.851 29.1695C108.937 29.0219 109.063 28.902 109.215 28.8238C109.386 28.7325 109.572 28.6739 109.765 28.651C109.994 28.6177 110.225 28.6012 110.456 28.6016V28.1634C110.463 28.0874 110.463 28.0109 110.456 27.935C110.443 27.8718 110.416 27.8126 110.376 27.7621C110.329 27.7114 110.273 27.6714 110.209 27.6448C110.121 27.6178 110.029 27.6053 109.938 27.6078C109.851 27.6043 109.765 27.619 109.684 27.651C109.621 27.6804 109.566 27.7249 109.524 27.7806C109.483 27.8314 109.454 27.8904 109.438 27.9535C109.428 28.019 109.428 28.0855 109.438 28.151V28.2251H108.907C108.907 28.2251 108.907 28.188 108.907 28.1634V28.0831C108.905 27.9406 108.935 27.7995 108.993 27.6695C109.043 27.555 109.119 27.4536 109.215 27.3732C109.319 27.2896 109.439 27.2286 109.567 27.1942C109.689 27.1682 109.813 27.1579 109.938 27.1634ZM110.438 29.114C110.277 29.1039 110.116 29.1039 109.956 29.114C109.83 29.122 109.706 29.1534 109.592 29.2066C109.495 29.2455 109.411 29.312 109.351 29.3979C109.292 29.4968 109.262 29.6101 109.265 29.7251C109.249 29.871 109.291 30.0172 109.382 30.1325C109.479 30.2126 109.602 30.2524 109.728 30.2436C109.814 30.2416 109.9 30.2249 109.981 30.1942C110.065 30.1564 110.141 30.1018 110.203 30.0337C110.275 29.9592 110.332 29.8711 110.37 29.7745C110.416 29.6543 110.439 29.5266 110.438 29.3979V29.114Z" fill="#868383"/>
<path d="M113.185 27.1633C113.303 27.1428 113.424 27.1428 113.543 27.1633C113.646 27.1986 113.737 27.2604 113.808 27.3423C113.889 27.4342 113.946 27.5444 113.975 27.6633C114.021 27.8196 114.042 27.9821 114.037 28.1448V30.6139H113.506V28.2065C113.508 28.1065 113.496 28.0067 113.469 27.9102C113.449 27.8426 113.415 27.7796 113.37 27.7251C113.327 27.6816 113.274 27.6497 113.216 27.6325C113.15 27.6219 113.084 27.6219 113.018 27.6325C112.934 27.6325 112.851 27.6537 112.777 27.6942C112.699 27.7405 112.631 27.8038 112.58 27.8794C112.513 27.9677 112.465 28.0684 112.438 28.1757C112.399 28.3037 112.381 28.437 112.382 28.5707V30.6633H111.852V27.2127H112.253L112.327 27.6078H112.364C112.445 27.4538 112.569 27.327 112.722 27.2436C112.868 27.1802 113.026 27.1527 113.185 27.1633Z" fill="#868383"/>
<path d="M116.16 30.4597C116.115 30.6403 116.057 30.8177 115.987 30.9905C115.928 31.1427 115.851 31.2876 115.759 31.4226C115.678 31.5407 115.573 31.6397 115.45 31.7128C115.333 31.7882 115.195 31.8269 115.055 31.8239H114.845C114.786 31.819 114.727 31.8044 114.672 31.7807V31.4103H114.858C114.929 31.4102 115 31.3977 115.068 31.3732C115.141 31.3487 115.206 31.3062 115.259 31.2498C115.325 31.1809 115.379 31.1017 115.419 31.0152C115.47 30.898 115.51 30.776 115.537 30.651L114.487 27.2251H115.074L115.827 29.8794H115.858L116.475 27.2251H117.018L116.16 30.4597Z" fill="#868383"/>
<path d="M120.086 30.6388H119.469L119.111 28.682C119.111 28.5956 119.08 28.503 119.068 28.4104C119.055 28.3178 119.068 28.2314 119.031 28.1573C118.994 28.0833 119.031 27.9783 119.031 27.8981C119.031 27.9783 119.031 28.0647 119.031 28.1573C119.031 28.2499 119.031 28.3178 119 28.4104C118.969 28.503 118.969 28.5956 118.957 28.682L118.605 30.6388H117.988L117.136 27.2129H117.716L118.148 29.1388C118.148 29.2067 118.179 29.2931 118.197 29.3857C118.216 29.4783 118.197 29.5647 118.241 29.6512C118.284 29.7376 118.272 29.8487 118.284 29.9536H118.315C118.315 29.8672 118.315 29.7746 118.315 29.682C118.315 29.5894 118.315 29.5092 118.352 29.4166C118.389 29.324 118.352 29.2252 118.395 29.1388L118.741 27.2129H119.358L119.716 29.1388C119.716 29.2252 119.747 29.3178 119.753 29.4166L119.79 29.6759C119.79 29.7684 119.79 29.861 119.79 29.9536H119.821C119.828 29.8665 119.84 29.7799 119.858 29.6944C119.858 29.6141 119.858 29.5277 119.901 29.4289C119.914 29.3313 119.933 29.2344 119.957 29.1388L120.383 27.2129H120.951L120.086 30.6388Z" fill="#868383"/>
<path d="M121.876 27.5707H121.913C121.985 27.4309 122.097 27.3151 122.234 27.2373C122.371 27.1595 122.527 27.1231 122.685 27.1324C122.802 27.1302 122.919 27.149 123.03 27.188C123.134 27.221 123.226 27.2831 123.296 27.367C123.376 27.4599 123.435 27.5695 123.468 27.688C123.514 27.8442 123.535 28.0067 123.53 28.1695V30.6386H122.993V28.2065C122.994 28.1069 122.984 28.0075 122.962 27.9102C122.94 27.8436 122.906 27.781 122.864 27.725C122.821 27.6815 122.768 27.6496 122.709 27.6324C122.644 27.6226 122.577 27.6226 122.512 27.6324C122.427 27.631 122.344 27.6523 122.271 27.6941C122.189 27.7386 122.119 27.8022 122.067 27.8793C122.005 27.9705 121.958 28.0703 121.925 28.1756C121.892 28.3046 121.875 28.4374 121.876 28.5707V30.6633H121.339V25.9287H121.876V27.5707Z" fill="#868383"/>
<path d="M125.481 27.1634C125.65 27.1601 125.818 27.1916 125.975 27.256C126.117 27.314 126.24 27.4128 126.327 27.5399C126.43 27.6913 126.503 27.861 126.543 28.0399C126.591 28.2818 126.614 28.528 126.611 28.7745V29.114H124.759C124.743 29.4173 124.807 29.7194 124.944 29.9906C125.004 30.0828 125.088 30.1572 125.187 30.206C125.286 30.2549 125.396 30.2764 125.506 30.2683C125.586 30.2687 125.666 30.2519 125.74 30.219C125.814 30.1834 125.877 30.1304 125.925 30.0646C125.979 29.9912 126.02 29.91 126.049 29.8239C126.077 29.7191 126.091 29.6113 126.092 29.5029H126.617C126.62 29.6791 126.593 29.8545 126.536 30.0214C126.488 30.1654 126.41 30.2979 126.308 30.4103C126.211 30.5204 126.088 30.6052 125.95 30.6572C125.805 30.7147 125.65 30.744 125.493 30.7436C125.303 30.7484 125.114 30.7148 124.938 30.6449C124.774 30.5783 124.633 30.467 124.53 30.3239C124.41 30.1583 124.325 29.9689 124.283 29.7683C124.224 29.5009 124.197 29.2274 124.203 28.9535C124.166 28.4804 124.279 28.0077 124.524 27.6017C124.635 27.4552 124.78 27.3386 124.947 27.2621C125.114 27.1856 125.298 27.1517 125.481 27.1634ZM125.481 27.6387C125.376 27.6333 125.272 27.6546 125.178 27.7004C125.09 27.7433 125.016 27.8095 124.962 27.8918C124.897 27.9843 124.85 28.0894 124.827 28.2004C124.792 28.3423 124.769 28.4869 124.759 28.6325H126.049C126.066 28.3775 126.017 28.1224 125.907 27.8918C125.872 27.8078 125.812 27.7361 125.737 27.6856C125.661 27.6351 125.572 27.608 125.481 27.6078V27.6387Z" fill="#868383"/>
<path d="M128.357 27.1636H128.456H128.536H128.61V27.713H128.431C128.349 27.7154 128.268 27.73 128.191 27.7562C128.115 27.786 128.048 27.8325 127.993 27.892C127.927 27.9622 127.878 28.0467 127.851 28.139C127.811 28.2624 127.792 28.3919 127.796 28.5217V30.6143H127.265V27.213H127.666L127.74 27.6575H127.777C127.777 27.5957 127.826 27.5278 127.857 27.4661C127.889 27.4058 127.929 27.3498 127.975 27.2994C128.023 27.2496 128.079 27.2079 128.141 27.176C128.211 27.1555 128.285 27.1513 128.357 27.1636Z" fill="#868383"/>
<path d="M130.209 27.1635C130.376 27.161 130.542 27.1925 130.697 27.2561C130.84 27.3155 130.964 27.4139 131.055 27.54C131.156 27.6919 131.227 27.8616 131.265 28.04C131.316 28.2814 131.339 28.5279 131.333 28.7746V29.1141H129.481C129.459 29.4179 129.523 29.7216 129.666 29.9907C129.726 30.0829 129.81 30.1573 129.909 30.2061C130.008 30.255 130.118 30.2765 130.228 30.2684C130.306 30.2682 130.384 30.2513 130.456 30.219C130.529 30.1835 130.593 30.1305 130.641 30.0647C130.697 29.9927 130.739 29.9111 130.765 29.824C130.795 29.7198 130.81 29.6116 130.808 29.503H131.333C131.336 29.6792 131.309 29.8546 131.252 30.0215C131.206 30.1667 131.128 30.2996 131.024 30.4104C130.927 30.519 130.807 30.6035 130.672 30.6573C130.527 30.7148 130.372 30.7441 130.215 30.7437C130.023 30.749 129.832 30.7154 129.654 30.645C129.491 30.5767 129.35 30.4658 129.246 30.324C129.125 30.1584 129.041 29.969 128.999 29.7684C128.94 29.501 128.913 29.2275 128.919 28.9536C128.882 28.4805 128.994 28.0078 129.24 27.6018C129.352 27.4539 129.5 27.3364 129.669 27.2599C129.838 27.1834 130.024 27.1502 130.209 27.1635ZM130.209 27.6388C130.103 27.6347 129.997 27.6558 129.9 27.7005C129.812 27.7434 129.738 27.8096 129.684 27.8919C129.624 27.9872 129.578 28.0913 129.549 28.2005C129.516 28.3427 129.496 28.4872 129.487 28.6326H130.826C130.842 28.3771 130.791 28.1218 130.678 27.8919C130.643 27.7989 130.578 27.7204 130.493 27.6689C130.408 27.6175 130.308 27.596 130.209 27.6079V27.6388Z" fill="#868383"/>
<path d="M6.13527 27.7126C4.89239 27.7053 3.68786 27.2815 2.7143 26.5088C1.74073 25.7362 1.05438 24.6594 0.764992 23.4507C0.475606 22.2419 0.599905 20.9711 1.11801 19.8413C1.63612 18.7115 2.5181 17.7881 3.62292 17.2188C3.66534 15.6588 4.20763 14.1537 5.16992 12.9252C6.1322 11.6967 7.4636 10.8097 8.968 10.3949C10.4724 9.98005 12.0702 10.0594 13.5262 10.6211C14.9821 11.1828 16.2191 12.1973 17.055 13.5151C17.7066 13.2601 18.3986 13.1242 19.0982 13.1138C20.3284 13.1107 21.5272 13.5016 22.5192 14.2291C23.5111 14.9567 24.244 15.9828 24.6106 17.1571C25.54 17.6182 26.3218 18.3304 26.8673 19.213C27.4128 20.0956 27.7002 21.1133 27.697 22.1509C27.6993 23.4859 27.2209 24.7771 26.3492 25.7882C25.4775 26.7993 24.2709 27.4627 22.9501 27.6571V27.7126H6.13527Z" fill="#6334FF"/>
<path d="M23.9068 17.7313C23.7303 16.9909 23.3864 16.3009 22.9014 15.7143C22.4164 15.1277 21.8033 14.6602 21.1093 14.3478C20.4153 14.0353 19.6588 13.8863 18.8981 13.9121C18.1374 13.938 17.3928 14.138 16.7216 14.4968C16.0681 13.1893 14.9926 12.1405 13.669 11.5201C12.3455 10.8998 10.8514 10.7441 9.42841 11.0782C8.00542 11.4124 6.73677 12.2168 5.82772 13.3615C4.91866 14.5061 4.42236 15.924 4.41911 17.3856C4.41911 17.4906 4.41911 17.6017 4.41911 17.7066C3.38214 18.1078 2.51808 18.8589 1.97653 19.83C1.43497 20.8011 1.25002 21.9309 1.45368 23.024C1.65735 24.117 2.23681 25.1045 3.09176 25.8153C3.9467 26.5262 5.0233 26.9157 6.13516 26.9165H22.1475C23.252 26.9113 24.3203 26.5226 25.1699 25.8169C26.0195 25.1112 26.5976 24.1323 26.8054 23.0476C27.0131 21.9628 26.8377 20.8396 26.309 19.8699C25.7802 18.9002 24.9311 18.1443 23.9068 17.7313Z" fill="white"/>
<path opacity="0.6" d="M22.2715 10.2437H35.0986L22.2715 0.00292969V10.2437Z" fill="black"/>
<path d="M22.2715 10.2437H35.0986L22.2715 0.00292969V10.2437Z" fill="#6334FF"/>
<path d="M12.8694 20.256C13.5206 20.256 14.0485 19.7281 14.0485 19.077C14.0485 18.4258 13.5206 17.8979 12.8694 17.8979C12.2183 17.8979 11.6904 18.4258 11.6904 19.077C11.6904 19.7281 12.2183 20.256 12.8694 20.256Z" fill="#6334FA"/>
<path d="M13.209 19.5093H12.5238L11.7275 22.7994H14.0115L13.209 19.5093Z" fill="#6334FA"/>
<path d="M131.419 24.4722H40.6416V24.8919H131.419V24.4722Z" fill="url(#paint0_linear_6362_186556)"/>
</g>
<defs>
<linearGradient id="paint0_linear_6362_186556" x1="40.6416" y1="24.682" x2="131.419" y2="24.682" gradientUnits="userSpaceOnUse">
<stop stop-color="#6334FA" stop-opacity="0"/>
<stop offset="1" stop-color="#6334FA"/>
</linearGradient>
<clipPath id="clip0_6362_186556">
<rect width="130.84" height="32" fill="white" transform="translate(0.580078 0.00292969)"/>
</clipPath>
</defs>
</svg>
