<svg width="216" height="58" viewBox="0 0 216 58" fill="none" xmlns="http://www.w3.org/2000/svg">
<path fill-rule="evenodd" clip-rule="evenodd" d="M164.224 4.82635C167.241 5.29166 170.154 5.79838 172.953 6.3467C174.162 6.58581 174.94 7.45939 174.693 8.30283C174.449 9.14506 173.253 9.63125 172.064 9.3983C114.009 -2.01067 16.3878 5.43016 6.24293 22.0133C3.44826 26.5819 7.60093 31.853 18.5873 37.6815C56.755 57.9292 171.455 57.8728 202.858 45.5852C208.823 43.2524 211.575 40.6987 211.035 37.9935C210.269 34.1597 202.009 25.9685 155.311 14.1888C154.124 13.8891 153.433 12.9795 153.769 12.1577C154.102 11.3357 155.33 10.9151 156.523 11.2108C194.518 20.7941 213.797 29.4838 215.453 37.7774C216.266 41.8453 212.824 45.4167 205.228 48.389C172.192 61.3126 56.2239 61.4641 16.0904 40.1706C3.08813 33.2745 -1.6086 26.6819 2.1268 20.5753C13.3748 2.18547 107.009 -3.99718 164.224 4.82635Z" fill="#5B29C5" fill-opacity="0.28"/>
</svg>
